<mxfile host="app.diagrams.net" modified="2024-01-15T11:00:00.000Z" agent="CloudOS Design" etag="dataflow-v1.0" version="22.1.16" type="device">
  <diagram name="System Data Flow" id="system-dataflow">
    <mxGraphModel dx="1422" dy="794" grid="1" gridSize="10" guides="1" tooltips="1" connect="1" arrows="1" fold="1" page="1" pageScale="1" pageWidth="1169" pageHeight="827" math="0" shadow="0">
      <root>
        <mxCell id="0" />
        <mxCell id="1" parent="0" />

        <!-- External Entities -->
        <mxCell id="user" value="User" style="rounded=1;whiteSpace=wrap;html=1;fillColor=#e1d5e7;strokeColor=#9673a6;fontSize=14;fontStyle=1" vertex="1" parent="1">
          <mxGeometry x="50" y="50" width="100" height="50" as="geometry" />
        </mxCell>

        <mxCell id="network" value="Network" style="rounded=1;whiteSpace=wrap;html=1;fillColor=#e1d5e7;strokeColor=#9673a6;fontSize=14;fontStyle=1" vertex="1" parent="1">
          <mxGeometry x="50" y="400" width="100" height="50" as="geometry" />
        </mxCell>

        <mxCell id="storage" value="Storage Device" style="rounded=1;whiteSpace=wrap;html=1;fillColor=#e1d5e7;strokeColor=#9673a6;fontSize=14;fontStyle=1" vertex="1" parent="1">
          <mxGeometry x="1000" y="400" width="100" height="50" as="geometry" />
        </mxCell>

        <!-- Application Layer -->
        <mxCell id="app-layer" value="Application Layer" style="rounded=1;whiteSpace=wrap;html=1;fillColor=#f0f0f0;strokeColor=#666666;fontSize=16;fontStyle=1" vertex="1" parent="1">
          <mxGeometry x="200" y="50" width="750" height="80" as="geometry" />
        </mxCell>

        <mxCell id="user-app" value="User Application" style="rounded=1;whiteSpace=wrap;html=1;fillColor=#dae8fc;strokeColor=#6c8ebf" vertex="1" parent="1">
          <mxGeometry x="220" y="70" width="120" height="40" as="geometry" />
        </mxCell>

        <mxCell id="web-service" value="Web Service" style="rounded=1;whiteSpace=wrap;html=1;fillColor=#dae8fc;strokeColor=#6c8ebf" vertex="1" parent="1">
          <mxGeometry x="360" y="70" width="120" height="40" as="geometry" />
        </mxCell>

        <mxCell id="database-app" value="Database App" style="rounded=1;whiteSpace=wrap;html=1;fillColor=#dae8fc;strokeColor=#6c8ebf" vertex="1" parent="1">
          <mxGeometry x="500" y="70" width="120" height="40" as="geometry" />
        </mxCell>

        <mxCell id="ai-service" value="AI Service" style="rounded=1;whiteSpace=wrap;html=1;fillColor=#dae8fc;strokeColor=#6c8ebf" vertex="1" parent="1">
          <mxGeometry x="640" y="70" width="120" height="40" as="geometry" />
        </mxCell>

        <mxCell id="container" value="Container" style="rounded=1;whiteSpace=wrap;html=1;fillColor=#dae8fc;strokeColor=#6c8ebf" vertex="1" parent="1">
          <mxGeometry x="780" y="70" width="120" height="40" as="geometry" />
        </mxCell>

        <!-- System Call Interface -->
        <mxCell id="syscall-interface" value="System Call Interface" style="rounded=1;whiteSpace=wrap;html=1;fillColor=#fff2cc;strokeColor=#d6b656;fontSize=14;fontStyle=1" vertex="1" parent="1">
          <mxGeometry x="200" y="180" width="750" height="50" as="geometry" />
        </mxCell>

        <!-- User Space Services -->
        <mxCell id="userspace-services" value="User Space Services" style="rounded=1;whiteSpace=wrap;html=1;fillColor=#d5e8d4;strokeColor=#82b366;fontSize=16;fontStyle=1" vertex="1" parent="1">
          <mxGeometry x="200" y="280" width="750" height="120" as="geometry" />
        </mxCell>

        <mxCell id="fs-service" value="File System&#xa;Service" style="rounded=1;whiteSpace=wrap;html=1;fillColor=#b0e3e6;strokeColor=#0e8088" vertex="1" parent="1">
          <mxGeometry x="220" y="310" width="100" height="60" as="geometry" />
        </mxCell>

        <mxCell id="net-service" value="Network&#xa;Service" style="rounded=1;whiteSpace=wrap;html=1;fillColor=#b0e3e6;strokeColor=#0e8088" vertex="1" parent="1">
          <mxGeometry x="340" y="310" width="100" height="60" as="geometry" />
        </mxCell>

        <mxCell id="security-service" value="Security&#xa;Service" style="rounded=1;whiteSpace=wrap;html=1;fillColor=#b0e3e6;strokeColor=#0e8088" vertex="1" parent="1">
          <mxGeometry x="460" y="310" width="100" height="60" as="geometry" />
        </mxCell>

        <mxCell id="device-service" value="Device&#xa;Service" style="rounded=1;whiteSpace=wrap;html=1;fillColor=#b0e3e6;strokeColor=#0e8088" vertex="1" parent="1">
          <mxGeometry x="580" y="310" width="100" height="60" as="geometry" />
        </mxCell>

        <mxCell id="container-service" value="Container&#xa;Service" style="rounded=1;whiteSpace=wrap;html=1;fillColor=#b0e3e6;strokeColor=#0e8088" vertex="1" parent="1">
          <mxGeometry x="700" y="310" width="100" height="60" as="geometry" />
        </mxCell>

        <mxCell id="ai-service-us" value="AI Engine&#xa;Service" style="rounded=1;whiteSpace=wrap;html=1;fillColor=#b0e3e6;strokeColor=#0e8088" vertex="1" parent="1">
          <mxGeometry x="820" y="310" width="100" height="60" as="geometry" />
        </mxCell>

        <!-- Microkernel Core -->
        <mxCell id="microkernel" value="Microkernel Core" style="rounded=1;whiteSpace=wrap;html=1;fillColor=#fff2cc;strokeColor=#d6b656;fontSize=16;fontStyle=1" vertex="1" parent="1">
          <mxGeometry x="200" y="450" width="750" height="120" as="geometry" />
        </mxCell>

        <mxCell id="process-mgr" value="Process&#xa;Manager" style="rounded=1;whiteSpace=wrap;html=1;fillColor=#ffd966;strokeColor=#b8b000" vertex="1" parent="1">
          <mxGeometry x="220" y="480" width="80" height="60" as="geometry" />
        </mxCell>

        <mxCell id="memory-mgr" value="Memory&#xa;Manager" style="rounded=1;whiteSpace=wrap;html=1;fillColor=#ffd966;strokeColor=#b8b000" vertex="1" parent="1">
          <mxGeometry x="320" y="480" width="80" height="60" as="geometry" />
        </mxCell>

        <mxCell id="ipc-mgr" value="IPC&#xa;Manager" style="rounded=1;whiteSpace=wrap;html=1;fillColor=#ffd966;strokeColor=#b8b000" vertex="1" parent="1">
          <mxGeometry x="420" y="480" width="80" height="60" as="geometry" />
        </mxCell>

        <mxCell id="scheduler" value="Scheduler" style="rounded=1;whiteSpace=wrap;html=1;fillColor=#ffd966;strokeColor=#b8b000" vertex="1" parent="1">
          <mxGeometry x="520" y="480" width="80" height="60" as="geometry" />
        </mxCell>

        <mxCell id="security-core" value="Security&#xa;Core" style="rounded=1;whiteSpace=wrap;html=1;fillColor=#ffd966;strokeColor=#b8b000" vertex="1" parent="1">
          <mxGeometry x="620" y="480" width="80" height="60" as="geometry" />
        </mxCell>

        <mxCell id="interrupt-mgr" value="Interrupt&#xa;Manager" style="rounded=1;whiteSpace=wrap;html=1;fillColor=#ffd966;strokeColor=#b8b000" vertex="1" parent="1">
          <mxGeometry x="720" y="480" width="80" height="60" as="geometry" />
        </mxCell>

        <mxCell id="syscall-mgr" value="Syscall&#xa;Handler" style="rounded=1;whiteSpace=wrap;html=1;fillColor=#ffd966;strokeColor=#b8b000" vertex="1" parent="1">
          <mxGeometry x="820" y="480" width="80" height="60" as="geometry" />
        </mxCell>

        <!-- Hardware Abstraction Layer -->
        <mxCell id="hal-layer" value="Hardware Abstraction Layer (HAL)" style="rounded=1;whiteSpace=wrap;html=1;fillColor=#d5e8d4;strokeColor=#82b366;fontSize=14;fontStyle=1" vertex="1" parent="1">
          <mxGeometry x="200" y="620" width="750" height="50" as="geometry" />
        </mxCell>

        <!-- Hardware Layer -->
        <mxCell id="hardware-layer" value="Physical Hardware" style="rounded=1;whiteSpace=wrap;html=1;fillColor=#f8cecc;strokeColor=#b85450;fontSize=14;fontStyle=1" vertex="1" parent="1">
          <mxGeometry x="200" y="720" width="750" height="50" as="geometry" />
        </mxCell>

        <!-- Data Flows -->

        <!-- User Input Flow -->
        <mxCell id="flow1" style="edgeStyle=orthogonalEdgeStyle;rounded=0;orthogonalLoop=1;jettySize=auto;html=1;strokeWidth=2;fillColor=#e1d5e7;strokeColor=#9673a6;startArrow=none;startFill=0;endArrow=classic;endFill=1" edge="1" parent="1">
          <mxGeometry relative="1" as="geometry">
            <mxPoint x="150" y="75" as="sourcePoint" />
            <mxPoint x="220" y="75" as="targetPoint" />
          </mxGeometry>
        </mxCell>
        <mxCell id="flow1-label" value="User Input" style="text;html=1;strokeColor=none;fillColor=none;align=center;verticalAlign=middle;whiteSpace=wrap;rounded=0;fontSize=10;fontStyle=2" vertex="1" parent="1">
          <mxGeometry x="155" y="55" width="60" height="20" as="geometry" />
        </mxCell>

        <!-- Application to System Call Flow -->
        <mxCell id="flow2" style="edgeStyle=orthogonalEdgeStyle;rounded=0;orthogonalLoop=1;jettySize=auto;html=1;strokeWidth=2;fillColor=#dae8fc;strokeColor=#6c8ebf;startArrow=none;startFill=0;endArrow=classic;endFill=1" edge="1" parent="1">
          <mxGeometry relative="1" as="geometry">
            <mxPoint x="575" y="130" as="sourcePoint" />
            <mxPoint x="575" y="180" as="targetPoint" />
          </mxGeometry>
        </mxCell>
        <mxCell id="flow2-label" value="System Calls" style="text;html=1;strokeColor=none;fillColor=none;align=center;verticalAlign=middle;whiteSpace=wrap;rounded=0;fontSize=10;fontStyle=2;rotation=-90" vertex="1" parent="1">
          <mxGeometry x="545" y="145" width="60" height="20" as="geometry" />
        </mxCell>

        <!-- System Call to Services Flow -->
        <mxCell id="flow3" style="edgeStyle=orthogonalEdgeStyle;rounded=0;orthogonalLoop=1;jettySize=auto;html=1;strokeWidth=2;fillColor=#fff2cc;strokeColor=#d6b656;startArrow=none;startFill=0;endArrow=classic;endFill=1" edge="1" parent="1">
          <mxGeometry relative="1" as="geometry">
            <mxPoint x="575" y="230" as="sourcePoint" />
            <mxPoint x="575" y="280" as="targetPoint" />
          </mxGeometry>
        </mxCell>
        <mxCell id="flow3-label" value="Service Requests" style="text;html=1;strokeColor=none;fillColor=none;align=center;verticalAlign=middle;whiteSpace=wrap;rounded=0;fontSize=10;fontStyle=2;rotation=-90" vertex="1" parent="1">
          <mxGeometry x="530" y="245" width="90" height="20" as="geometry" />
        </mxCell>

        <!-- Services to Kernel Flow -->
        <mxCell id="flow4" style="edgeStyle=orthogonalEdgeStyle;rounded=0;orthogonalLoop=1;jettySize=auto;html=1;strokeWidth=2;fillColor=#d5e8d4;strokeColor=#82b366;startArrow=none;startFill=0;endArrow=classic;endFill=1" edge="1" parent="1">
          <mxGeometry relative="1" as="geometry">
            <mxPoint x="575" y="400" as="sourcePoint" />
            <mxPoint x="575" y="450" as="targetPoint" />
          </mxGeometry>
        </mxCell>
        <mxCell id="flow4-label" value="Kernel Calls" style="text;html=1;strokeColor=none;fillColor=none;align=center;verticalAlign=middle;whiteSpace=wrap;rounded=0;fontSize=10;fontStyle=2;rotation=-90" vertex="1" parent="1">
          <mxGeometry x="545" y="415" width="60" height="20" as="geometry" />
        </mxCell>

        <!-- Kernel to HAL Flow -->
        <mxCell id="flow5" style="edgeStyle=orthogonalEdgeStyle;rounded=0;orthogonalLoop=1;jettySize=auto;html=1;strokeWidth=3;fillColor=#fff2cc;strokeColor=#d6b656;startArrow=none;startFill=0;endArrow=classic;endFill=1" edge="1" parent="1">
          <mxGeometry relative="1" as="geometry">
            <mxPoint x="575" y="570" as="sourcePoint" />
            <mxPoint x="575" y="620" as="targetPoint" />
          </mxGeometry>
        </mxCell>
        <mxCell id="flow5-label" value="Hardware Access" style="text;html=1;strokeColor=none;fillColor=none;align=center;verticalAlign=middle;whiteSpace=wrap;rounded=0;fontSize=10;fontStyle=2;rotation=-90" vertex="1" parent="1">
          <mxGeometry x="520" y="585" width="110" height="20" as="geometry" />
        </mxCell>

        <!-- HAL to Hardware Flow -->
        <mxCell id="flow6" style="edgeStyle=orthogonalEdgeStyle;rounded=0;orthogonalLoop=1;jettySize=auto;html=1;strokeWidth=3;fillColor=#d5e8d4;strokeColor=#82b366;startArrow=none;startFill=0;endArrow=classic;endFill=1" edge="1" parent="1">
          <mxGeometry relative="1" as="geometry">
            <mxPoint x="575" y="670" as="sourcePoint" />
            <mxPoint x="575" y="720" as="targetPoint" />
          </mxGeometry>
        </mxCell>
        <mxCell id="flow6-label" value="Direct HW Access" style="text;html=1;strokeColor=none;fillColor=none;align=center;verticalAlign=middle;whiteSpace=wrap;rounded=0;fontSize=10;fontStyle=2;rotation=-90" vertex="1" parent="1">
          <mxGeometry x="515" y="685" width="120" height="20" as="geometry" />
        </mxCell>

        <!-- Network Input Flow -->
        <mxCell id="net-flow1" style="edgeStyle=orthogonalEdgeStyle;rounded=0;orthogonalLoop=1;jettySize=auto;html=1;strokeWidth=2;fillColor=#e1d5e7;strokeColor=#9673a6;startArrow=none;startFill=0;endArrow=classic;endFill=1" edge="1" parent="1">
          <mxGeometry relative="1" as="geometry">
            <mxPoint x="150" y="425" as="sourcePoint" />
            <mxPoint x="340" y="340" as="targetPoint" />
            <Array as="points">
              <mxPoint x="170" y="425" />
              <mxPoint x="170" y="340" />
            </Array>
          </mxGeometry>
        </mxCell>
        <mxCell id="net-flow1-label" value="Network Data" style="text;html=1;strokeColor=none;fillColor=none;align=center;verticalAlign=middle;whiteSpace=wrap;rounded=0;fontSize=10;fontStyle=2" vertex="1" parent="1">
          <mxGeometry x="155" y="375" width="80" height="20" as="geometry" />
        </mxCell>

        <!-- Storage Flow -->
        <mxCell id="storage-flow1" style="edgeStyle=orthogonalEdgeStyle;rounded=0;orthogonalLoop=1;jettySize=auto;html=1;strokeWidth=2;fillColor=#e1d5e7;strokeColor=#9673a6;startArrow=none;startFill=0;endArrow=classic;endFill=1" edge="1" parent="1">
          <mxGeometry relative="1" as="geometry">
            <mxPoint x="1000" y="425" as="sourcePoint" />
            <mxPoint x="320" y="340" as="targetPoint" />
            <Array as="points">
              <mxPoint x="980" y="425" />
              <mxPoint x="980" y="340" />
            </Array>
          </mxGeometry>
        </mxCell>
        <mxCell id="storage-flow1-label" value="Storage I/O" style="text;html=1;strokeColor=none;fillColor=none;align=center;verticalAlign=middle;whiteSpace=wrap;rounded=0;fontSize=10;fontStyle=2" vertex="1" parent="1">
          <mxGeometry x="940" y="375" width="80" height="20" as="geometry" />
        </mxCell>

        <!-- Inter-Service Communication -->
        <mxCell id="ipc-flow1" style="edgeStyle=orthogonalEdgeStyle;rounded=0;orthogonalLoop=1;jettySize=auto;html=1;strokeWidth=2;fillColor=#b0e3e6;strokeColor=#0e8088;startArrow=classic;startFill=1;endArrow=classic;endFill=1;dashed=1" edge="1" parent="1">
          <mxGeometry relative="1" as="geometry">
            <mxPoint x="320" y="340" as="sourcePoint" />
            <mxPoint x="340" y="340" as="targetPoint" />
          </mxGeometry>
        </mxCell>

        <mxCell id="ipc-flow2" style="edgeStyle=orthogonalEdgeStyle;rounded=0;orthogonalLoop=1;jettySize=auto;html=1;strokeWidth=2;fillColor=#b0e3e6;strokeColor=#0e8088;startArrow=classic;startFill=1;endArrow=classic;endFill=1;dashed=1" edge="1" parent="1">
          <mxGeometry relative="1" as="geometry">
            <mxPoint x="440" y="340" as="sourcePoint" />
            <mxPoint x="460" y="340" as="targetPoint" />
          </mxGeometry>
        </mxCell>

        <mxCell id="ipc-flow3" style="edgeStyle=orthogonalEdgeStyle;rounded=0;orthogonalLoop=1;jettySize=auto;html=1;strokeWidth=2;fillColor=#b0e3e6;strokeColor=#0e8088;startArrow=classic;startFill=1;endArrow=classic;endFill=1;dashed=1" edge="1" parent="1">
          <mxGeometry relative="1" as="geometry">
            <mxPoint x="560" y="340" as="sourcePoint" />
            <mxPoint x="580" y="340" as="targetPoint" />
          </mxGeometry>
        </mxCell>

        <mxCell id="ipc-label" value="IPC Messages" style="text;html=1;strokeColor=none;fillColor=none;align=center;verticalAlign=middle;whiteSpace=wrap;rounded=0;fontSize=10;fontStyle=2" vertex="1" parent="1">
          <mxGeometry x="410" y="320" width="80" height="20" as="geometry" />
        </mxCell>

        <!-- Data Types Legend -->
        <mxCell id="legend" value="Data Flow Types" style="rounded=1;whiteSpace=wrap;html=1;fillColor=#f5f5f5;strokeColor=#666666;fontSize=12;fontStyle=1;align=left;verticalAlign=top" vertex="1" parent="1">
          <mxGeometry x="970" y="50" width="180" height="180" as="geometry" />
        </mxCell>

        <mxCell id="legend-user" style="edgeStyle=orthogonalEdgeStyle;rounded=0;orthogonalLoop=1;jettySize=auto;html=1;strokeWidth=2;fillColor=#e1d5e7;strokeColor=#9673a6;startArrow=none;startFill=0;endArrow=classic;endFill=1" edge="1" parent="1">
          <mxGeometry relative="1" as="geometry">
            <mxPoint x="980" y="80" as="sourcePoint" />
            <mxPoint x="1020" y="80" as="targetPoint" />
          </mxGeometry>
        </mxCell>
        <mxCell id="legend-user-text" value="User/External Data" style="text;html=1;strokeColor=none;fillColor=none;align=left;verticalAlign=middle;whiteSpace=wrap;rounded=0;fontSize=10" vertex="1" parent="1">
          <mxGeometry x="1030" y="70" width="100" height="20" as="geometry" />
        </mxCell>

        <mxCell id="legend-syscall" style="edgeStyle=orthogonalEdgeStyle;rounded=0;orthogonalLoop=1;jettySize=auto;html=1;strokeWidth=2;fillColor=#dae8fc;strokeColor=#6c8ebf;startArrow=none;startFill=0;endArrow=classic;endFill=1" edge="1" parent="1">
          <mxGeometry relative="1" as="geometry">
            <mxPoint x="980" y="110" as="sourcePoint" />
            <mxPoint x="1020" y="110" as="targetPoint" />
          </mxGeometry>
        </mxCell>
        <mxCell id="legend-syscall-text" value="System Calls" style="text;html=1;strokeColor=none;fillColor=none;align=left;verticalAlign=middle;whiteSpace=wrap;rounded=0;fontSize=10" vertex="1" parent="1">
          <mxGeometry x="1030" y="100" width="100" height="20" as="geometry" />
        </mxCell>

        <mxCell id="legend-ipc" style="edgeStyle=orthogonalEdgeStyle;rounded=0;orthogonalLoop=1;jettySize=auto;html=1;strokeWidth=2;fillColor=#b0e3e6;strokeColor=#0e8088;startArrow=classic;startFill=1;endArrow=classic;endFill=1;dashed=1" edge="1" parent="1">
          <mxGeometry relative="1" as="geometry">
            <mxPoint x="980" y="140" as="sourcePoint" />
            <mxPoint x="1020" y="140" as="targetPoint" />
          </mxGeometry>
        </mxCell>
        <mxCell id="legend-ipc-text" value="IPC Communication" style="text;html=1;strokeColor=none;fillColor=none;align=left;verticalAlign=middle;whiteSpace=wrap;rounded=0;fontSize=10" vertex="1" parent="1">
          <mxGeometry x="1030" y="130" width="100" height="20" as="geometry" />
        </mxCell>

        <mxCell id="legend-kernel" style="edgeStyle=orthogonalEdgeStyle;rounded=0;orthogonalLoop=1;jettySize=auto;html=1;strokeWidth=2;fillColor=#fff2cc;strokeColor=#d6b656;startArrow=none;startFill=0;endArrow=classic;endFill=1" edge="1" parent="1">
          <mxGeometry relative="1" as="geometry">
            <mxPoint x="980" y="170" as="sourcePoint" />
            <mxPoint x="1020" y="170" as="targetPoint" />
          </mxGeometry>
        </mxCell>
        <mxCell id="legend-kernel-text" value="Kernel Operations" style="text;html=1;strokeColor=none;fillColor=none;align=left;verticalAlign=middle;whiteSpace=wrap;rounded=0;fontSize=10" vertex="1" parent="1">
          <mxGeometry x="1030" y="160" width="100" height="20" as="geometry" />
        </mxCell>

        <mxCell id="legend-hw" style="edgeStyle=orthogonalEdgeStyle;rounded=0;orthogonalLoop=1;jettySize=auto;html=1;strokeWidth=3;fillColor=#d5e8d4;strokeColor=#82b366;startArrow=none;startFill=0;endArrow=classic;endFill=1" edge="1" parent="1">
          <mxGeometry relative="1" as="geometry">
            <mxPoint x="980" y="200" as="sourcePoint" />
            <mxPoint x="1020" y="200" as="targetPoint" />
          </mxGeometry>
        </mxCell>
        <mxCell id="legend-hw-text" value="Hardware Access" style="text;html=1;strokeColor=none;fillColor=none;align=left;verticalAlign=middle;whiteSpace=wrap;rounded=0;fontSize=10" vertex="1" parent="1">
          <mxGeometry x="1030" y="190" width="100" height="20" as="geometry" />
        </mxCell>

      </root>
    </mxGraphModel>
  </diagram>
</mxfile>